<svg width="60" height="60" viewBox="0 0 60 60" fill="none" xmlns="http://www.w3.org/2000/svg">
<path fill-rule="evenodd" clip-rule="evenodd" d="M16.3501 12.5C16.5001 14.725 16.8751 16.9 17.4751 18.975L14.4751 21.975C13.4501 18.975 12.8001 15.8 12.5751 12.5H16.3501ZM40.9999 42.55C43.1249 43.15 45.2999 43.525 47.4999 43.675V47.4001C44.1999 47.175 41.0249 46.5251 37.9999 45.5251L40.9999 42.55ZM18.75 7.5H10C8.625 7.5 7.5 8.625 7.5 10C7.5 33.475 26.525 52.5 50 52.5C51.375 52.5 52.5 51.375 52.5 50V41.275C52.5 39.9 51.375 38.775 50 38.775C46.9 38.775 43.875 38.275 41.075 37.35C40.825 37.25 40.55 37.225 40.3 37.225C39.65 37.225 39.025 37.475 38.525 37.95L33.025 43.45C25.95 39.825 20.15 34.05 16.55 26.975L22.05 21.475C22.75 20.775 22.95 19.8 22.675 18.925C21.75 16.125 21.25 13.125 21.25 10C21.25 8.625 20.125 7.5 18.75 7.5Z" fill="#FF9400"/>
</svg>
