<svg width="17" height="12" viewBox="0 0 17 12" fill="none" xmlns="http://www.w3.org/2000/svg">
<path fill-rule="evenodd" clip-rule="evenodd" d="M8.49959 1.54545C11.4282 1.54545 14.04 3.19136 15.315 5.79545C14.04 8.39954 11.4282 10.0455 8.49959 10.0455C5.57095 10.0455 2.95914 8.39954 1.68414 5.79545C2.95914 3.19136 5.57095 1.54545 8.49959 1.54545ZM8.5 0C4.63636 0 1.33682 2.40318 0 5.79545C1.33682 9.18773 4.63636 11.5909 8.5 11.5909C12.3636 11.5909 15.6632 9.18773 17 5.79545C15.6632 2.40318 12.3636 0 8.5 0ZM8.49958 3.86364C9.56594 3.86364 10.4314 4.72909 10.4314 5.79546C10.4314 6.86182 9.56594 7.72727 8.49958 7.72727C7.43322 7.72727 6.56776 6.86182 6.56776 5.79546C6.56776 4.72909 7.43322 3.86364 8.49958 3.86364ZM8.50017 2.31818C6.5838 2.31818 5.02289 3.87909 5.02289 5.79545C5.02289 7.71182 6.5838 9.27273 8.50017 9.27273C10.4165 9.27273 11.9774 7.71182 11.9774 5.79545C11.9774 3.87909 10.4165 2.31818 8.50017 2.31818Z" fill="#5A5A5A"/>
</svg>
