<svg width="19" height="18" viewBox="0 0 19 18" fill="none" xmlns="http://www.w3.org/2000/svg">
<path d="M17.5065 0H1.4935C1.23001 0 0.977307 0.104672 0.790989 0.290989C0.604672 0.477307 0.5 0.730008 0.5 0.9935V17.0068C0.500066 17.2702 0.604768 17.5228 0.791078 17.7091C0.977388 17.8954 1.23005 18 1.4935 18H10.1143V11.0295H7.7685V8.313H10.1143V6.3095C10.1143 3.9845 11.5343 2.71875 13.6082 2.71875C14.6017 2.71875 15.4555 2.7925 15.7045 2.82575V5.2555L14.266 5.25625C13.138 5.25625 12.9198 5.79225 12.9198 6.57875V8.31325H15.6098L15.2595 11.0297H12.9198V18H17.5068C17.7702 17.9999 18.0228 17.8952 18.2091 17.7089C18.3954 17.5226 18.5 17.2699 18.5 17.0065V0.9935C18.5 0.730008 18.3953 0.477307 18.209 0.290989C18.0227 0.104672 17.77 0 17.5065 0Z" fill="#00293F"/>
</svg>
