<svg width="62" height="60" viewBox="0 0 62 60" fill="none" xmlns="http://www.w3.org/2000/svg">
<path fill-rule="evenodd" clip-rule="evenodd" d="M31 5C21.0025 5 12.9166 12.825 12.9166 22.5C12.9166 35.625 31 55 31 55C31 55 49.0833 35.625 49.0833 22.5C49.0833 12.825 40.9975 5 31 5ZM18.0835 22.5C18.0835 15.6 23.8702 10 31.0002 10C38.1302 10 43.9169 15.6 43.9169 22.5C43.9169 29.7 36.4769 40.475 31.0002 47.2C25.6269 40.525 18.0835 29.625 18.0835 22.5Z" fill="#6056DD"/>
<path fill-rule="evenodd" clip-rule="evenodd" d="M31 28.75C34.5668 28.75 37.4583 25.9518 37.4583 22.5C37.4583 19.0482 34.5668 16.25 31 16.25C27.4331 16.25 24.5416 19.0482 24.5416 22.5C24.5416 25.9518 27.4331 28.75 31 28.75Z" fill="#6056DD"/>
</svg>
