<svg width="20" height="16" viewBox="0 0 20 16" fill="none" xmlns="http://www.w3.org/2000/svg">
<path d="M19.2507 1.852C18.53 2.17132 17.7654 2.38081 16.9825 2.4735C17.8071 1.9801 18.4242 1.2037 18.7188 0.289002C17.9436 0.74914 17.0955 1.07316 16.211 1.247C15.8415 0.852858 15.3949 0.538804 14.8991 0.324301C14.4032 0.109799 13.8685 -0.000581029 13.3282 2.30003e-06C11.1472 2.30003e-06 9.37875 1.768 9.37875 3.9495C9.37875 4.25875 9.41375 4.5605 9.48125 4.84975C6.19875 4.685 3.28875 3.1125 1.34075 0.722753C0.989518 1.32552 0.804957 2.01087 0.806 2.7085C0.805482 3.35875 0.965595 3.99907 1.27211 4.57254C1.57863 5.14602 2.02206 5.6349 2.563 5.99575C1.93593 5.97583 1.32267 5.80647 0.77425 5.50175C0.77375 5.51825 0.77375 5.5345 0.77375 5.5515C0.77375 7.4645 2.135 9.06075 3.9415 9.424C3.35981 9.58147 2.74993 9.60455 2.158 9.4915C2.6605 11.0603 4.119 12.2025 5.84725 12.2345C4.44823 13.3324 2.72063 13.9279 0.94225 13.9253C0.6235 13.9253 0.30925 13.9068 0 13.87C1.80583 15.0303 3.90754 15.6462 6.054 15.644C13.3185 15.644 17.291 9.62625 17.291 4.40775C17.291 4.23675 17.287 4.066 17.2795 3.89625C18.0531 3.33773 18.7207 2.64542 19.2507 1.852Z" fill="#00293F"/>
</svg>
