<svg width="39" height="48" viewBox="0 0 39 48" fill="none" xmlns="http://www.w3.org/2000/svg">
<path d="M32.5716 25.5009C32.6389 32.7649 38.9303 35.1821 39 35.2129C38.9468 35.3833 37.9947 38.6576 35.6854 42.0398C33.689 44.9639 31.6172 47.8772 28.3533 47.9375C25.1462 47.9967 24.1149 46.0317 20.4483 46.0317C16.7828 46.0317 15.637 47.8773 12.6011 47.9968C9.45065 48.1164 7.05151 44.8349 5.03868 41.9215C0.925533 35.9622 -2.21776 25.0819 2.00289 17.7375C4.09962 14.0902 7.84663 11.7806 11.9137 11.7214C15.0074 11.6622 17.9274 13.8072 19.8187 13.8072C21.7088 13.8072 25.2572 11.2277 28.9876 11.6065C30.5493 11.6717 34.933 12.2387 37.7478 16.3678C37.521 16.5087 32.5172 19.428 32.5716 25.5009ZM26.5442 7.66392C28.2169 5.63493 29.3426 2.8104 29.0355 0C26.6246 0.0971082 23.7092 1.61004 21.9799 3.63792C20.4301 5.43369 19.0728 8.30794 19.439 11.0627C22.1263 11.2711 24.8716 9.69419 26.5442 7.66392Z" fill="#252B33"/>
</svg>
