<svg width="48" height="48" viewBox="0 0 48 48" fill="none" xmlns="http://www.w3.org/2000/svg">
<path d="M36.1018 0C37.1171 0.0958642 38.2399 0.0958642 39.2552 0.306233C40.2787 0.488897 41.2737 0.83274 42.2104 1.32745C43.1707 1.7908 44.0427 2.42989 44.7952 3.21544C46.2728 4.71732 47.2702 6.67321 47.644 8.80752C47.8459 9.84738 47.9474 10.9059 47.9474 11.967H48V36.0902C47.9492 37.1486 47.8479 38.2033 47.6966 39.2497C47.527 40.3255 47.183 41.3614 46.6813 42.3121C46.2178 43.2667 45.5967 44.1295 44.8478 44.8551C44.0456 45.5944 43.1581 46.2105 42.2092 46.6872C41.293 47.1705 40.3147 47.5074 39.3066 47.6938C38.2674 47.8961 37.2103 47.9987 36.1532 48H11.805C10.7897 47.9041 9.66689 47.9041 8.65159 47.6938C7.62812 47.5111 6.63313 47.1673 5.69645 46.6725C4.7564 46.2212 3.89518 45.5994 3.15222 44.8405C1.67465 43.3386 0.677268 41.3827 0.303397 39.2484C0.10153 38.2085 0 37.15 0 36.0889V11.7167C0.0512261 10.6628 0.1525 9.61255 0.303397 8.57053C0.473012 7.49472 0.817021 6.45885 1.3187 5.5082C1.7955 4.54169 2.42564 3.6796 3.1785 2.9638C3.37678 2.76675 3.58701 2.67088 3.78529 2.46051C4.39571 1.95575 5.04437 1.51115 5.72393 1.13173L6.43583 0.825497C7.15252 0.512607 7.90743 0.30357 8.67787 0.210369C9.4515 0.0853995 10.2315 0.0151362 11.0131 0H36.1018ZM28.2178 8.8421C31.7078 13.4842 33.2988 19.0964 31.9021 24.0316C31.7753 24.4829 31.624 24.9257 31.4491 25.3579L30.8028 24.9865C24.7548 21.1604 19.1236 16.6876 13.9958 11.6413C17.0678 16.0307 20.4699 20.1688 24.1694 24.0177C19.0932 20.8699 14.258 17.3204 9.71559 13.4046C10.2893 14.3545 10.9566 15.2438 11.7058 16.0573C16.0329 21.6632 21.0272 26.6905 26.5741 31.0206C22.3724 33.5545 16.3864 33.6733 10.4134 31.0206C8.95579 30.3916 7.58018 29.5895 6.31579 28.6206C9.0272 32.7575 12.8883 35.9659 17.3956 37.8265C23.1767 40.2278 28.9296 39.9903 33.1185 37.6408L33.1162 37.6547C35.1462 36.8059 39.1934 35.5592 41.378 39.6051C41.8826 40.5739 42.9808 35.4531 38.9862 30.6114L38.9218 30.5318C38.9874 30.3322 39.0904 30.1339 39.0904 29.9343C41.0818 22.4792 36.2982 13.5789 28.2178 8.8421Z" fill="#252B33"/>
</svg>
