<svg width="48" height="48" viewBox="0 0 48 48" fill="none" xmlns="http://www.w3.org/2000/svg">
<path d="M23.9984 7.33233e-05C27.8279 -0.00944552 31.6029 0.907973 35.0009 2.67405L35.4481 2.90586L35.0564 3.23234C34.091 4.00303 33.3307 4.99996 32.8428 6.13478L32.7089 6.46127L32.4021 6.31435C23.8606 2.25865 13.6415 4.87253 8.09641 12.5313C2.55135 20.1901 3.25817 30.7145 9.77756 37.5631C16.297 44.4116 26.7738 45.6356 34.6962 40.4741C42.6187 35.3127 45.7323 25.2346 42.1019 16.5039L41.9713 16.1774L42.2978 16.0599C43.4551 15.6278 44.4879 14.9168 45.3047 13.99L45.6312 13.6113L45.8401 14.0683L45.8369 14.039C50.2568 23.7277 47.7636 35.1704 39.7135 42.1421C31.6634 49.1138 19.9819 49.9469 11.0239 44.1882C2.06582 38.4296 -2.02613 27.4566 0.974074 17.2386C3.97427 7.02062 13.349 0.00167701 23.9984 7.33233e-05ZM24.0016 13.0726C30.0391 13.0798 34.9316 17.9723 34.9388 24.0098C34.9388 30.0502 30.0421 34.947 24.0016 34.947C17.9612 34.947 13.0644 30.0502 13.0644 24.0098C13.0644 17.9693 17.9612 13.0726 24.0016 13.0726ZM39.7055 4.07793C42.4571 4.07793 44.6876 6.30852 44.6876 9.06008C44.6876 11.8116 42.4571 14.0422 39.7055 14.0422C36.9539 14.0422 34.7234 11.8116 34.7234 9.06008C34.7234 6.30852 36.9539 4.07793 39.7055 4.07793Z" fill="#252B33"/>
</svg>
