<svg width="48" height="43" viewBox="0 0 48 43" fill="none" xmlns="http://www.w3.org/2000/svg">
<path d="M25.2177 4.2043C29.3535 0.60509 33.4487 -0.900508 35.9527 0.543431C38.5641 2.04934 39.3288 6.62329 38.1592 12.3006C38.088 12.6466 38.0087 12.998 37.9213 13.3546C38.4521 13.5075 38.9676 13.6701 39.4658 13.8416C44.65 15.6264 48 18.4217 48 21.3122C48 24.3267 44.4198 27.2741 38.9172 29.0973C38.6263 29.1936 38.3289 29.2867 38.0251 29.3766C38.1338 29.8128 38.2296 30.2402 38.3125 30.659C39.3987 36.1463 38.5621 40.6562 35.9875 42.1466C33.4948 43.5896 29.4657 42.172 25.3864 38.6616C24.9557 38.291 24.5228 37.896 24.0892 37.4785C23.7546 37.8018 23.4203 38.1097 23.0872 38.4008C18.8758 42.0823 14.5506 43.6098 11.9739 42.1238C9.47859 40.6859 8.69455 36.4867 9.69855 31.199C9.80436 30.6417 9.93011 30.0704 10.075 29.4872C9.62848 29.3584 9.19524 29.2228 8.77695 29.0798C3.4839 27.2707 0 24.2871 0 21.3122C0 18.432 3.24538 15.6554 8.32717 13.8837C8.89522 13.6856 9.48818 13.4991 10.1032 13.3246C9.9699 12.7857 9.85145 12.2549 9.74961 11.7349C8.6968 6.35413 9.43759 2.05426 11.9392 0.606163C14.5481 -0.904181 18.8927 0.717612 23.2273 4.56638C23.4916 4.80108 23.7567 5.04561 24.0221 5.29952C24.3087 5.0246 24.5947 4.75858 24.8803 4.50246L25.2177 4.2043ZM36.0415 29.8961L35.8242 29.9459C33.8939 30.3802 31.7764 30.7002 29.54 30.8986C28.221 32.8086 26.8696 34.5276 25.5176 36.0065C25.9213 36.3959 26.324 36.7633 26.7239 37.1074C30.2126 40.1095 33.4475 41.2477 34.9602 40.372C36.5544 39.4491 37.2354 35.7777 36.301 31.0572C36.226 30.6784 36.1394 30.2912 36.0415 29.8961ZM12.0641 29.9886L12.0314 30.1179C11.9452 30.4713 11.8667 30.8197 11.7961 31.1623L11.7131 31.5815C10.8545 36.1034 11.484 39.4749 12.998 40.3474C14.5937 41.2676 18.1147 40.0241 21.7377 36.857C22.0407 36.5921 22.3455 36.3117 22.6514 36.0164C21.2504 34.5111 19.8599 32.7936 18.5321 30.9254C16.2064 30.7362 14.0304 30.4232 12.0641 29.9886ZM26.8977 31.0737L26.673 31.0833C25.7938 31.1194 24.9017 31.1376 24.0004 31.1376C23.0479 31.1376 22.1105 31.1195 21.1913 31.0834C22.1385 32.3309 23.1083 33.4916 24.0805 34.5404C25.0191 33.5059 25.9629 32.3439 26.8977 31.0737ZM24.0004 13.6228C22.5212 13.6228 21.0573 13.6786 19.63 13.7864C18.8233 14.9667 18.0434 16.2069 17.3021 17.4922L17.0239 17.9785C16.3907 19.1014 15.8009 20.2335 15.2594 21.3613C15.8801 22.6497 16.5651 23.9448 17.3085 25.2288C18.0541 26.5166 18.8409 27.7629 19.6545 28.9506C21.0534 29.0412 22.5068 29.0871 24.0004 29.0871C25.5004 29.0871 26.9724 29.0349 28.3971 28.933C29.1782 27.7606 29.9482 26.5183 30.6984 25.2176C31.4479 23.9179 32.1382 22.6166 32.7617 21.3315C32.1365 20.0688 31.4445 18.7809 30.692 17.4811C29.9479 16.1957 29.1734 14.9598 28.3797 13.7883C26.9527 13.6791 25.4865 13.6228 24.0004 13.6228ZM14.1725 23.7727L14.1107 23.9194C13.5273 25.3155 13.0259 26.6883 12.6164 28.0106C13.9865 28.3087 15.4688 28.5462 17.0406 28.7216C16.5235 27.9192 16.0202 27.096 15.5339 26.2562C15.0566 25.4318 14.6023 24.6026 14.1725 23.7727ZM33.8677 23.699L33.7633 23.8989C33.3552 24.6787 32.9251 25.4609 32.4747 26.242C31.9912 27.0803 31.4993 27.8958 31.0008 28.6856C32.5849 28.4949 34.0877 28.2392 35.4796 27.9216C35.0501 26.5765 34.5093 25.1614 33.8677 23.699ZM10.6549 15.3002L10.4408 15.361C9.94399 15.5059 9.46386 15.6589 9.00222 15.8199C4.65625 17.3351 2.05051 19.5645 2.05051 21.3122C2.05051 23.1543 4.88671 25.5832 9.44007 27.1395C9.82087 27.2696 10.216 27.3935 10.6245 27.5109C11.2314 25.5339 12.0307 23.4582 12.9938 21.3617C12.0433 19.2969 11.2556 17.2541 10.6549 15.3002ZM37.3724 15.33L37.3498 15.4031C36.7621 17.2918 35.9815 19.2857 35.036 21.3222C36.0393 23.4352 36.8586 25.4798 37.466 27.4028L37.8123 27.2985L38.2723 27.1508C43.0234 25.5767 45.9495 23.1677 45.9495 21.3122C45.9495 19.5703 43.2401 17.3096 38.7983 15.7804C38.3391 15.6224 37.8633 15.4721 37.3724 15.33ZM24.0003 17.0261C26.3675 17.0261 28.2865 18.9451 28.2865 21.3122C28.2865 23.6794 26.3675 25.5984 24.0003 25.5984C21.6331 25.5984 19.7141 23.6794 19.7141 21.3122C19.7141 18.9451 21.6331 17.0261 24.0003 17.0261ZM31.0079 14.0532L31.0806 14.1678C31.5523 14.9107 32.015 15.6736 32.4666 16.4537C32.9518 17.2917 33.4129 18.1257 33.8485 18.9526C34.4548 17.531 34.9706 16.1445 35.3843 14.8186C34.007 14.5034 32.5391 14.2469 31.0079 14.0532ZM16.9975 14.0485L16.4903 14.1149C15.1508 14.2956 13.8625 14.5239 12.6459 14.7962C13.0622 16.1403 13.5737 17.5332 14.1705 18.949C14.5984 18.1193 15.0506 17.2905 15.5248 16.4679L15.8525 15.8995L15.8576 15.8995L16.1082 15.4797C16.3997 14.9956 16.6963 14.5183 16.9975 14.0485ZM34.8296 2.26705C33.2784 1.50228 30.032 2.73291 26.5638 5.7511C26.1972 6.07016 25.8291 6.40757 25.4604 6.76219C26.8322 8.24121 28.1989 9.9487 29.5176 11.8265C31.7818 12.0392 33.945 12.3813 35.9369 12.8409C36.0147 12.5185 36.0864 12.2001 36.1508 11.887C37.1607 6.98496 36.5357 3.24668 34.9284 2.31976L34.8296 2.26705ZM21.637 5.89873C17.9792 2.72341 14.5397 1.47006 12.9666 2.38077C11.459 3.2534 10.8599 6.73095 11.7619 11.341C11.8565 11.8236 11.9665 12.317 12.0914 12.8195C14.0779 12.3693 16.2394 12.0331 18.4972 11.8239C19.8137 9.9652 21.1923 8.25995 22.5871 6.7623C22.3455 6.53374 22.1052 6.31223 21.8659 6.0997L21.637 5.89873ZM24.0242 8.22985L23.8713 8.39378C22.962 9.3861 22.0582 10.4733 21.1749 11.638C22.108 11.5945 23.0514 11.5723 24.0004 11.5723C24.9585 11.5723 25.9091 11.5949 26.8477 11.6392C25.917 10.3986 24.9699 9.25448 24.0242 8.22985Z" fill="#252B33"/>
</svg>
