<svg width="44" height="48" viewBox="0 0 44 48" fill="none" xmlns="http://www.w3.org/2000/svg">
<path d="M35.5579 13.7036C35.5677 13.8168 35.572 13.9321 35.572 14.0482V33.5207C35.572 35.6147 33.8894 37.302 31.8003 37.302L31.651 37.301L31.6517 45.0041C31.6517 46.6588 30.29 48 28.6104 48C26.931 48 25.5693 46.6588 25.5693 45.0041L25.569 37.301H17.93L17.9309 45.0041C17.9309 46.6588 16.5693 48 14.8896 48C13.2102 48 11.8485 46.6588 11.8485 45.0041L11.848 37.301L11.6992 37.302C9.67568 37.302 8.03333 35.7187 7.93266 33.7158L7.92777 33.5207V14.0482C7.92777 13.9321 7.93652 13.8172 7.94656 13.7036H35.5579ZM3.04131 15.4366C4.72074 15.4366 6.0824 16.778 6.0824 18.4326V31.285C6.0824 32.9397 4.72074 34.2811 3.04131 34.2811C1.36166 34.2811 2.51173e-08 32.9397 2.51173e-08 31.2852V18.4328C-0.000213535 16.7782 1.36144 15.4366 3.04131 15.4366ZM40.4589 15.4366C42.1383 15.4366 43.5 16.778 43.5 18.4326V31.285C43.5 32.9397 42.1383 34.2811 40.4589 34.2811C38.7793 34.2811 37.4176 32.9397 37.4176 31.2852V18.4328C37.4176 16.7782 38.7793 15.4366 40.4589 15.4366ZM34.5672 0.0423334C34.7204 0.129479 34.7729 0.322483 34.6845 0.473419L32.1083 4.86815C34.1652 6.89641 35.4233 9.53479 35.4642 12.4245H8.0354C8.07626 9.53506 9.33407 6.89701 11.3904 4.8689L8.81574 0.473412C8.72728 0.322472 8.77978 0.12947 8.933 0.0423289C9.08622 -0.0448122 9.28213 0.00690654 9.37059 0.157846L11.8681 4.42149C14.0309 2.49735 16.9527 1.20351 20.2216 0.892922H23.278C26.5471 1.20361 29.4689 2.49755 31.6317 4.42172L34.1296 0.157838C34.2181 0.00690116 34.414 -0.044812 34.5672 0.0423334ZM16.0866 5.54619C15.2176 5.54851 14.5152 6.22805 14.5176 7.06433C14.5201 7.90881 15.2266 8.58456 16.0954 8.58246C16.9646 8.58014 17.667 7.90039 17.6644 7.06433C17.6618 6.21942 16.9554 5.54388 16.0866 5.54619ZM27.8315 5.54619C26.9626 5.54851 26.2602 6.22805 26.2625 7.06433C26.2651 7.90881 26.9715 8.58456 27.8403 8.58246C28.7095 8.58014 29.4119 7.90039 29.4093 7.06433C29.4068 6.21942 28.7003 5.54388 27.8315 5.54619Z" fill="#252B33"/>
</svg>
